<?xml version="1.0" encoding="UTF-8" standalone="no"?>
<!-- Created with Inkscape (http://www.inkscape.org/) -->
<svg viewBox="0 0 650 350" version="1.1" id="svg9555" inkscape:version="1.1 (c68e22c387, 2021-05-23)" sodipodi:docname="blop.svg" xmlns:inkscape="http://www.inkscape.org/namespaces/inkscape" xmlns:sodipodi="http://sodipodi.sourceforge.net/DTD/sodipodi-0.dtd" xmlns="http://www.w3.org/2000/svg" xmlns:svg="http://www.w3.org/2000/svg">
  <sodipodi:namedview id="namedview9557" pagecolor="#505050" bordercolor="#eeeeee" borderopacity="1" inkscape:pageshadow="0" inkscape:pageopacity="0" inkscape:pagecheckerboard="0" inkscape:document-units="mm" showgrid="false" inkscape:zoom="0.19442866" inkscape:cx="162.01315" inkscape:cy="1092.9459" inkscape:window-width="2560" inkscape:window-height="1377" inkscape:window-x="1912" inkscape:window-y="-8" inkscape:window-maximized="1" inkscape:current-layer="layer1"/>
  <defs id="defs9552"/>
  <g inkscape:label="Layer 1" inkscape:groupmode="layer" id="layer1">
    <path id="path9892" style="color:#000000;stroke-width:3.77953;stroke-linecap:round;stroke-linejoin:round;-inkscape-stroke:none;stroke:none" d="M 94.488281,0 A 94.488189,94.488189 0 0 0 0,94.488281 V 661.41797 850.39453 a 94.488189,94.488189 0 0 0 94.488281,94.48828 94.488189,94.488189 0 0 0 66.816409,-28.01953 283.46457,283.46457 0 0 0 122.16015,28.01953 283.46457,283.46457 0 0 0 283.46485,-283.46484 283.46457,283.46457 0 0 0 -283.46485,-283.46485 283.46457,283.46457 0 0 0 -94.48828,16.9375 V 94.488281 A 94.488189,94.488189 0 0 0 94.488281,0 Z M 283.46484,566.92969 a 94.488188,94.488188 0 0 1 94.48828,94.48828 94.488188,94.488188 0 0 1 -94.48828,94.48828 94.488188,94.488188 0 0 1 -94.48828,-94.48828 94.488188,94.488188 0 0 1 94.48828,-94.48828 z" transform="scale(0.26458333)"/>
    <path id="path9892-1" style="color:#000000;stroke-width:1;stroke-linecap:round;stroke-linejoin:round;-inkscape-stroke:none;stroke:none" d="M 525.00003,350.00024 A 25,25 0 0 1 500,325.00022 V 175.00007 125.00002 A 25,25 0 0 1 525.00003,100 a 25,25 0 0 1 17.6785,7.4135 75,75 0 0 1 32.32154,-7.4135 75,75 0 0 1 75.00008,75.00007 75,75 0 0 1 -75.00008,75.00007 75,75 0 0 1 -25.00002,-4.48138 v 79.48146 a 25,25 0 0 1 -25.00002,25.00002 z m 50.00004,-150.00015 a 24.999999,24.999999 0 0 0 25.00003,-25.00002 24.999999,24.999999 0 0 0 -25.00003,-25.00002 24.999999,24.999999 0 0 0 -25.00002,25.00002 24.999999,24.999999 0 0 0 25.00002,25.00002 z"/>
    <g id="path10641" style="stroke:none">
      <path style="color:#000000;stroke-width:50;stroke-linecap:round;stroke-linejoin:round;-inkscape-stroke:none;stroke:none" d="M 225,25 V 225" id="path11074"/>
      <path style="color:#000000;stroke-linecap:round;stroke-linejoin:round;-inkscape-stroke:none;stroke:none" d="m 225,0 a 25,25 0 0 0 -25,25 v 200 a 25,25 0 0 0 25,25 25,25 0 0 0 25,-25 V 25 A 25,25 0 0 0 225,0 Z" id="path11076"/>
    </g>
    <path id="path11120" style="stroke:none;stroke-width:122.38;stroke-linecap:round;stroke-linejoin:round;stroke-miterlimit:4;stroke-dasharray:none" d="m 1417.3223,377.95312 a 283.46457,283.46457 0 0 0 -283.4649,283.46485 283.46457,283.46457 0 0 0 283.4649,283.46484 283.46457,283.46457 0 0 0 283.4648,-283.46484 283.46457,283.46457 0 0 0 -283.4648,-283.46485 z m 0,188.97657 a 94.488189,94.488189 0 0 1 94.4882,94.48828 94.488189,94.488189 0 0 1 -94.4882,94.48828 94.488189,94.488189 0 0 1 -94.4883,-94.48828 94.488189,94.488189 0 0 1 94.4883,-94.48828 z" transform="scale(0.26458333)"/>
  </g>
</svg>