<?xml version="1.0" encoding="UTF-8" standalone="no"?>
<!-- Created with Inkscape (http://www.inkscape.org/) -->
<svg width="250mm" height="250mm" viewBox="0 0 944.88192 944.88192" version="1.1" id="svg5" sodipodi:docname="dashboard.svg" inkscape:version="1.1 (c68e22c387, 2021-05-23)" xmlns:inkscape="http://www.inkscape.org/namespaces/inkscape" xmlns:sodipodi="http://sodipodi.sourceforge.net/DTD/sodipodi-0.dtd" xmlns="http://www.w3.org/2000/svg" xmlns:svg="http://www.w3.org/2000/svg">
  <sodipodi:namedview id="namedview7" pagecolor="#505050" bordercolor="#eeeeee" borderopacity="1" inkscape:pageshadow="0" inkscape:pageopacity="0" inkscape:pagecheckerboard="0" inkscape:document-units="px" showgrid="false" inkscape:zoom="0.77771465" inkscape:cx="396.67505" inkscape:cy="458.39435" inkscape:window-width="2560" inkscape:window-height="1377" inkscape:window-x="1912" inkscape:window-y="-8" inkscape:window-maximized="1" inkscape:current-layer="layer1"/>
  <defs id="defs2"/>
  <g inkscape:label="Layer 1" inkscape:groupmode="layer" id="layer1" style="display:inline">
    <path id="path926" style="fill-opacity:1;fill-rule:evenodd;stroke-width:1.32405" d="M 94.488281,0 A 94.48819,94.48819 0 0 0 0,94.488281 94.48819,94.48819 0 0 0 94.488281,188.97656 H 850.39453 A 94.48819,94.48819 0 0 0 944.88281,94.488281 94.48819,94.48819 0 0 0 850.39453,0 Z m 0,377.95312 A 94.48819,94.48819 0 0 0 0,472.44141 94.48819,94.48819 0 0 0 94.488281,566.92969 H 850.39453 a 94.48819,94.48819 0 0 0 94.48828,-94.48828 94.48819,94.48819 0 0 0 -94.48828,-94.48829 z m 0,377.95313 A 94.48819,94.48819 0 0 0 0,850.39453 94.48819,94.48819 0 0 0 94.488281,944.88281 H 850.39453 a 94.48819,94.48819 0 0 0 94.48828,-94.48828 94.48819,94.48819 0 0 0 -94.48828,-94.48828 z"/>
  </g>
</svg>