<?xml version="1.0" encoding="UTF-8" standalone="no"?>
<!-- Created with Inkscape (http://www.inkscape.org/) -->

<svg
   width="250mm"
   height="250mm"
   viewBox="0 0 250 250"
   version="1.1"
   id="svg2510"
   inkscape:version="1.1 (c68e22c387, 2021-05-23)"
   sodipodi:docname="dots.svg"
   xmlns:inkscape="http://www.inkscape.org/namespaces/inkscape"
   xmlns:sodipodi="http://sodipodi.sourceforge.net/DTD/sodipodi-0.dtd"
   xmlns="http://www.w3.org/2000/svg"
   xmlns:svg="http://www.w3.org/2000/svg">
  <sodipodi:namedview
     id="namedview2512"
     pagecolor="#505050"
     bordercolor="#eeeeee"
     borderopacity="1"
     inkscape:pageshadow="0"
     inkscape:pageopacity="0"
     inkscape:pagecheckerboard="0"
     inkscape:document-units="mm"
     showgrid="false"
     inkscape:zoom="0.77771465"
     inkscape:cx="458.39435"
     inkscape:cy="462.25181"
     inkscape:window-width="2560"
     inkscape:window-height="1377"
     inkscape:window-x="1912"
     inkscape:window-y="-8"
     inkscape:window-maximized="1"
     inkscape:current-layer="layer1" />
  <defs
     id="defs2507" />
  <g
     inkscape:label="Layer 1"
     inkscape:groupmode="layer"
     id="layer1">
    <path
       style="color:#000000;stroke-width:54.487;stroke-linecap:round;stroke-linejoin:round;-inkscape-stroke:none"
       d="M 50,125 A 25,25 0 0 1 25,150 25,25 0 0 1 0,125 25,25 0 0 1 25,100 25,25 0 0 1 50,125 Z"
       id="path4762" />
    <path
       style="color:#000000;stroke-width:54.487;stroke-linecap:round;stroke-linejoin:round;-inkscape-stroke:none"
       d="m 150,125 a 25,25 0 0 1 -25,25 25,25 0 0 1 -25,-25 25,25 0 0 1 25,-25 25,25 0 0 1 25,25 z"
       id="path4762-9" />
    <path
       style="color:#000000;stroke-width:54.487;stroke-linecap:round;stroke-linejoin:round;-inkscape-stroke:none"
       d="m 250,125 a 25,25 0 0 1 -25,25 25,25 0 0 1 -25,-25 25,25 0 0 1 25,-25 25,25 0 0 1 25,25 z"
       id="path4762-3" />
  </g>
</svg>
