<?xml version="1.0" encoding="UTF-8" standalone="no"?>
<!-- Created with Inkscape (http://www.inkscape.org/) -->
<svg width="250mm" height="250mm" viewBox="0 0 250 250" version="1.1" id="svg5" inkscape:version="1.1 (c68e22c387, 2021-05-23)" sodipodi:docname="plus.svg" xmlns:inkscape="http://www.inkscape.org/namespaces/inkscape" xmlns:sodipodi="http://sodipodi.sourceforge.net/DTD/sodipodi-0.dtd" xmlns="http://www.w3.org/2000/svg" xmlns:svg="http://www.w3.org/2000/svg">
  <sodipodi:namedview id="namedview7" pagecolor="#505050" bordercolor="#eeeeee" borderopacity="1" inkscape:pageshadow="0" inkscape:pageopacity="0" inkscape:pagecheckerboard="0" inkscape:document-units="mm" showgrid="false" inkscape:zoom="0.77771465" inkscape:cx="396.67505" inkscape:cy="561.25984" inkscape:window-width="2560" inkscape:window-height="1377" inkscape:window-x="1912" inkscape:window-y="-8" inkscape:window-maximized="1" inkscape:current-layer="layer1"/>
  <defs id="defs2"/>
  <g inkscape:label="Layer 1" inkscape:groupmode="layer" id="layer1">
    <path id="path879" style="color:#000000;-inkscape-stroke:none;fill-rule:nonzero" d="M 472.44141 0 A 94.488189 94.488189 0 0 0 377.95312 94.488281 L 377.95312 377.95312 L 94.488281 377.95312 A 94.488189 94.488189 0 0 0 0 472.44141 A 94.488189 94.488189 0 0 0 94.488281 566.92969 L 377.95312 566.92969 L 377.95312 850.39453 A 94.488189 94.488189 0 0 0 472.44141 944.88281 A 94.488189 94.488189 0 0 0 566.92969 850.39453 L 566.92969 566.92969 L 850.39453 566.92969 A 94.488189 94.488189 0 0 0 944.88281 472.44141 A 94.488189 94.488189 0 0 0 850.39453 377.95312 L 566.92969 377.95312 L 566.92969 94.488281 A 94.488189 94.488189 0 0 0 472.44141 0 z " transform="scale(0.26458333)"/>
  </g>
</svg>