<?xml version="1.0" encoding="UTF-8" standalone="no"?>
<!-- Created with Inkscape (http://www.inkscape.org/) -->
<svg width="250mm" height="250mm" viewBox="0 0 250 250" version="1.1" id="svg1466" inkscape:version="1.1 (c68e22c387, 2021-05-23)" sodipodi:docname="settings.svg" xmlns:inkscape="http://www.inkscape.org/namespaces/inkscape" xmlns:sodipodi="http://sodipodi.sourceforge.net/DTD/sodipodi-0.dtd" xmlns="http://www.w3.org/2000/svg" xmlns:svg="http://www.w3.org/2000/svg">
  <sodipodi:namedview id="namedview1468" pagecolor="#505050" bordercolor="#eeeeee" borderopacity="1" inkscape:pageshadow="0" inkscape:pageopacity="0" inkscape:pagecheckerboard="0" inkscape:document-units="mm" showgrid="false" inkscape:zoom="0.70710678" inkscape:cx="586.19152" inkscape:cy="505.58135" inkscape:window-width="2560" inkscape:window-height="1377" inkscape:window-x="1912" inkscape:window-y="-8" inkscape:window-maximized="1" inkscape:current-layer="layer1"/>
  <defs id="defs1463">
    <inkscape:path-effect effect="copy_rotate" starting_point="0,0" origin="472.6,472.5" id="path-effect5887" is_visible="true" lpeversion="1" method="fuse_paths" num_copies="6" starting_angle="0" rotation_angle="60" gap="-0.01" copies_to_360="true" mirror_copies="false" split_items="false"/>
    <inkscape:path-effect effect="copy_rotate" starting_point="0,0" origin="125,125" id="path-effect5885" is_visible="false" lpeversion="1" method="normal" num_copies="6" starting_angle="0" rotation_angle="60" gap="-0.01" copies_to_360="true" mirror_copies="false" split_items="false"/>
    <inkscape:path-effect effect="copy_rotate" starting_point="0,0" origin="125,126.3" id="path-effect5362" is_visible="true" lpeversion="1" method="normal" num_copies="6" starting_angle="0" rotation_angle="60" gap="0.05" copies_to_360="true" mirror_copies="false" split_items="false"/>
    <inkscape:path-effect origin="125,125" starting_point="0,0" effect="copy_rotate" id="path-effect2389" is_visible="false" lpeversion="1" method="normal" num_copies="6" starting_angle="0" rotation_angle="60" gap="-0.01" copies_to_360="true" mirror_copies="false" split_items="false"/>
    <inkscape:path-effect effect="copy_rotate" starting_point="153.09278,132.34021" origin="125,125" id="path-effect1631" is_visible="true" lpeversion="1" method="normal" num_copies="6" starting_angle="0" rotation_angle="60" gap="0.05" copies_to_360="true" mirror_copies="false" split_items="false"/>
  </defs>
  <g inkscape:label="Layer 1" inkscape:groupmode="layer" id="layer1">
    <path id="path2123" style="stroke-width:1.0138" d="m 472.43164,0.015625 c -34.24605,-4.067e-5 -64.23655,18.218255 -80.80859,45.492187 -8.68059,14.286356 -13.68953,31.057697 -13.67774,48.996094 0.005,7.663424 0.89858,15.313404 2.82617,22.730474 2.08212,8.01169 3.177,16.23383 3.17383,24.51171 -0.0131,34.26329 -18.57789,66.05189 -48.51758,82.71289 -3.14499,1.75014 -6.26033,3.5524 -9.34765,5.40235 -29.4022,17.618 -66.07834,17.91541 -95.76172,0.77539 -6.88393,-3.97498 -13.6174,-9.08464 -19.28906,-14.6543 -5.58634,-5.48587 -11.84544,-10.24414 -18.62305,-14.16406 -15.5283,-8.981 -32.55867,-13.02674 -49.27148,-12.65234 -31.90628,0.71474 -62.679712,17.57837 -79.802739,47.23632 -17.123027,29.65795 -16.33976,64.7417 -1.005859,92.73047 8.032054,14.66079 20.050795,27.38476 35.591797,36.34375 6.639231,3.82735 13.710551,6.87684 21.097651,8.91602 7.97944,2.20269 15.64914,5.36613 22.81641,9.50781 29.66633,17.143 47.91968,49.09517 47.33789,83.35352 -0.0294,1.73015 -0.19474,3.4571 -0.19336,5.1875 0.001,1.88807 0.17821,3.77236 0.21094,5.66015 0.59405,34.2638 -17.50783,66.15385 -47.1875,83.28711 -6.88439,3.97417 -14.67664,7.25194 -22.33594,9.37891 -7.54407,2.09497 -14.79625,5.13236 -21.578122,9.04492 C 52.88435,605.88996 37.40772,663.69368 63.5,708.88672 c 17.12299,29.65797 47.89679,46.52149 79.80273,47.23633 16.71264,0.37443 33.74228,-3.67294 49.27149,-12.65235 6.6342,-3.83607 12.81193,-8.43465 18.27148,-13.8125 5.8973,-5.80905 12.47019,-10.86966 19.64063,-15.00586 29.67943,-17.12029 66.57824,-16.98272 95.98047,0.60938 3.05523,1.82802 6.1496,3.58897 9.26172,5.31836 29.96134,16.64936 48.55473,48.39726 48.55273,82.67383 -4.6e-4,7.94914 -1.05925,16.33462 -3.04687,24.03125 -1.95772,7.58084 -2.95252,15.38138 -2.95508,23.21093 -0.017,52.18446 42.30382,94.48831 94.48828,94.48829 34.24605,2e-5 64.23655,-18.21826 80.80859,-45.49219 8.68059,-14.28636 13.69148,-31.05769 13.67969,-48.9961 -0.005,-7.66342 -0.89859,-15.31344 -2.82617,-22.73047 -2.08213,-8.01171 -3.17895,-16.23383 -3.17578,-24.51171 0.0131,-34.26329 18.58106,-66.33331 48.51757,-83 3.0585,-1.70278 6.08138,-3.46808 9.08399,-5.26758 29.40083,-17.62029 66.34201,-17.76307 96.02539,-0.62305 6.88393,3.97498 13.61936,9.08463 19.29102,14.6543 5.58632,5.48586 11.84177,10.24707 18.62109,14.16406 45.18453,26.10699 102.98204,10.60911 129.07422,-34.58398 17.12306,-29.65793 16.34171,-64.7417 1.00781,-92.73047 -8.03205,-14.66079 -20.05275,-27.38476 -35.59375,-36.34375 -6.63923,-3.82735 -13.71053,-6.87683 -21.09766,-8.91602 -7.97943,-2.20269 -15.64913,-5.36613 -22.8164,-9.50781 -29.66633,-17.143 -48.23344,-49.2768 -47.65235,-83.53516 0.029,-1.70866 0.17082,-3.41426 0.19141,-5.12304 0.0218,-1.80736 -0.041,-3.61463 -0.0703,-5.42188 -0.55623,-34.27206 17.67985,-66.27165 47.36523,-83.4082 6.88439,-3.97417 14.67664,-7.25194 22.33594,-9.37891 7.54407,-2.09497 14.79625,-5.13236 21.57812,-9.04492 45.20159,-26.07746 60.67822,-83.88118 34.58594,-129.07422 -17.12299,-29.65797 -47.89679,-46.52149 -79.80273,-47.23633 -16.71264,-0.37443 -33.74228,3.67294 -49.27149,12.65235 -6.6342,3.83607 -12.81193,8.43465 -18.27148,13.8125 -5.8973,5.80905 -12.47019,10.86966 -19.64063,15.00586 -29.67943,17.12029 -66.50551,16.94225 -95.90625,-0.65235 -3.08149,-1.84409 -6.19895,-3.6266 -9.33789,-5.37109 -29.96053,-16.65083 -48.55278,-48.30156 -48.55078,-82.57813 4.6e-4,-7.94914 1.05728,-16.33461 3.04492,-24.03125 1.95773,-7.58083 2.95448,-15.38138 2.95704,-23.210934 C 566.93893,42.319457 524.6161,0.01556768 472.43164,0.015625 Z m 0.01,330.693355 c 78.27669,0 141.73242,63.45574 141.73242,141.73243 0,78.27669 -63.45573,141.73242 -141.73242,141.73242 -78.27669,0 -141.73243,-63.45573 -141.73243,-141.73242 0,-78.27669 63.45574,-141.73243 141.73243,-141.73243 z" transform="scale(0.26458333)" sodipodi:nodetypes="sssssssssssssssssssssssssssssssssssssssssssssssssssssssssssssssssssss"/>
  </g>
</svg>