<?xml version="1.0" encoding="UTF-8" standalone="no"?>
<!-- Created with Inkscape (http://www.inkscape.org/) -->
<svg width="100mm" height="99.999992mm" viewBox="0 0 100 99.999992" version="1.1" id="svg5" inkscape:version="1.1 (c68e22c387, 2021-05-23)" sodipodi:docname="x.svg" xmlns:inkscape="http://www.inkscape.org/namespaces/inkscape" xmlns:sodipodi="http://sodipodi.sourceforge.net/DTD/sodipodi-0.dtd" xmlns="http://www.w3.org/2000/svg" xmlns:svg="http://www.w3.org/2000/svg">
  <sodipodi:namedview id="namedview7" pagecolor="#505050" bordercolor="#eeeeee" borderopacity="1" inkscape:pageshadow="0" inkscape:pageopacity="0" inkscape:pagecheckerboard="0" inkscape:document-units="mm" showgrid="false" inkscape:snap-bbox="true" inkscape:zoom="1.5554293" inkscape:cx="517.86346" inkscape:cy="272.91501" inkscape:window-width="2560" inkscape:window-height="1377" inkscape:window-x="1912" inkscape:window-y="-8" inkscape:window-maximized="1" inkscape:current-layer="layer1"/>
  <defs id="defs2"/>
  <g inkscape:label="Layer 1" inkscape:groupmode="layer" id="layer1">
    <path id="path33" style="fill-rule:evenodd;stroke-width:1.08138;stroke:none" d="M 45.839844 0.125 A 49.361306 49.361306 0 0 0 14.457031 14.457031 A 49.361306 49.361306 0 0 0 14.457031 84.265625 L 119.16797 188.97656 L 14.457031 293.6875 A 49.361306 49.361306 0 0 0 14.457031 363.49414 A 49.361306 49.361306 0 0 0 84.265625 363.49414 L 188.97656 258.7832 L 293.6875 363.49414 A 49.361306 49.361306 0 0 0 363.49609 363.49609 A 49.361306 49.361306 0 0 0 363.49414 293.6875 L 258.7832 188.97656 L 363.49609 84.265625 A 49.361306 49.361306 0 0 0 363.49609 14.457031 A 49.361306 49.361306 0 0 0 293.6875 14.457031 L 188.97656 119.16797 L 84.265625 14.457031 A 49.361306 49.361306 0 0 0 45.839844 0.125 z " transform="scale(0.26458333)"/>
  </g>
</svg>